<svg width="800" height="600" viewBox="0 0 800 600" fill="none" xmlns="http://www.w3.org/2000/svg">
  <defs>
    <linearGradient id="bgGradient" x1="0%" y1="0%" x2="100%" y2="100%">
      <stop offset="0%" style="stop-color:#f8fafc;stop-opacity:1" />
      <stop offset="100%" style="stop-color:#e2e8f0;stop-opacity:1" />
    </linearGradient>
    <linearGradient id="buildingGradient" x1="0%" y1="0%" x2="100%" y2="100%">
      <stop offset="0%" style="stop-color:#ffffff;stop-opacity:1" />
      <stop offset="100%" style="stop-color:#f1f5f9;stop-opacity:1" />
    </linearGradient>
  </defs>
  
  <rect width="800" height="600" fill="url(#bgGradient)"/>
  
  <g transform="translate(400, 250)">
    <rect x="-120" y="-80" width="240" height="160" rx="12" fill="url(#buildingGradient)" stroke="#cbd5e1" stroke-width="2"/>
    
    <rect x="-100" y="-60" width="200" height="120" rx="8" fill="#ffffff" stroke="#e2e8f0" stroke-width="1.5"/>
    
    <rect x="-80" y="-40" width="160" height="8" rx="2" fill="#cbd5e1"/>
    <rect x="-80" y="-20" width="120" height="8" rx="2" fill="#cbd5e1"/>
    <rect x="-80" y="0" width="140" height="8" rx="2" fill="#cbd5e1"/>
    <rect x="-80" y="20" width="100" height="8" rx="2" fill="#cbd5e1"/>
    <rect x="-80" y="40" width="150" height="8" rx="2" fill="#cbd5e1"/>
    
    <circle cx="0" cy="-90" r="12" fill="#3b82f6" opacity="0.8"/>
    <path d="M-6 -90 L0 -98 L6 -90 M0 -98 L0 -82" stroke="#3b82f6" stroke-width="2.5" stroke-linecap="round" stroke-linejoin="round" fill="none"/>
    
    <rect x="-15" y="-75" width="30" height="20" rx="2" fill="#3b82f6" opacity="0.1"/>
    <line x1="-10" y1="-70" x2="10" y2="-70" stroke="#3b82f6" stroke-width="1.5" stroke-linecap="round"/>
    <line x1="-10" y1="-65" x2="10" y2="-65" stroke="#3b82f6" stroke-width="1.5" stroke-linecap="round"/>
    <line x1="-10" y1="-60" x2="10" y2="-60" stroke="#3b82f6" stroke-width="1.5" stroke-linecap="round"/>
  </g>
  
  <text x="400" y="420" font-family="system-ui, -apple-system, sans-serif" font-size="20" fill="#64748b" text-anchor="middle" font-weight="500" opacity="0.7">Pharmacy</text>
</svg>
